<svg width="480" height="480" viewBox="0 0 480 480" fill="none" xmlns="http://www.w3.org/2000/svg">
<rect width="480" height="480" fill="#34547A" fill-opacity="0.8"/>
<path d="M276.253 226.062C256.171 205.979 223.497 205.979 203.414 226.062L190 239.474L203.747 253.221C213.787 263.261 226.976 268.283 240.167 268.283C253.358 268.283 266.546 263.263 276.588 253.221L290.002 239.807L276.253 226.062ZM274.198 250.832C255.432 269.596 224.9 269.596 206.135 250.832L194.777 239.474L205.802 228.449C224.568 209.685 255.1 209.685 273.865 228.449L285.223 239.807L274.198 250.832Z" fill="white"/>
<path d="M238.264 226.077C231.743 226.077 226.439 231.381 226.439 237.902C226.439 238.834 227.196 239.591 228.128 239.591C229.061 239.591 229.818 238.834 229.818 237.902C229.818 233.245 233.606 229.456 238.264 229.456C239.196 229.456 239.953 228.699 239.953 227.766C239.953 226.834 239.198 226.077 238.264 226.077Z" fill="white"/>
<path d="M239.953 217.631C227.845 217.631 217.993 227.483 217.993 239.591C217.993 251.699 227.845 261.55 239.953 261.55C252.061 261.55 261.912 251.699 261.912 239.591C261.912 227.483 252.062 217.631 239.953 217.631ZM239.953 258.172C229.708 258.172 221.372 249.836 221.372 239.591C221.372 229.346 229.708 221.01 239.953 221.01C250.198 221.01 258.534 229.346 258.534 239.591C258.534 249.836 250.199 258.172 239.953 258.172Z" fill="white"/>
</svg>
